<?xml version="1.0" encoding="iso-8859-1"?>
<!-- Generator: Adobe Illustrator 16.0.0, SVG Export Plug-In . SVG Version: 6.00 Build 0)  -->
<!DOCTYPE svg PUBLIC "-//W3C//DTD SVG 1.1//EN" "http://www.w3.org/Graphics/SVG/1.1/DTD/svg11.dtd">
<svg xmlns="http://www.w3.org/2000/svg" xmlns:xlink="http://www.w3.org/1999/xlink" version="1.1" id="Capa_1" x="0px" y="0px" width="512px" height="512px" viewBox="0 0 424.979 424.98" style="enable-background:new 0 0 424.979 424.98;" xml:space="preserve">
<g>
	<path d="M51.909,351.587c-6.45,5.583-10.241,13.746-10.241,22.317c0,16.271,13.239,29.515,29.523,29.515   c10,0,19.22-5.033,24.658-13.309c34.652,22.818,74.939,34.869,116.64,34.869c40.383,0,79.612-11.409,113.643-32.981   c5.574,7.178,14.098,11.421,23.299,11.421c16.282,0,29.522-13.244,29.522-29.515c0-7.422-2.853-14.566-7.866-20.017   c34.76-38.977,53.888-89.089,53.888-141.406c0-50.165-17.825-98.777-50.221-137.086c2.749-4.593,4.199-9.791,4.199-15.164   c0-16.26-13.232-29.505-29.522-29.505c-6.388,0-12.611,2.098-17.701,5.911C296.448,12.673,255.265,0,212.489,0   c-43.781,0-85.791,13.221-121.603,38.295c-5.424-4.895-12.339-7.568-19.695-7.568c-16.284,0-29.523,13.245-29.523,29.505   c0,6.52,2.164,12.833,6.152,17.985C16.971,116.023,0.005,163.613,0.005,212.482C0.011,263.665,18.427,312.952,51.909,351.587z    M67.833,388.524c-5.42,0-9.814-4.392-9.814-9.811c0-5.422,4.394-9.813,9.814-9.813c5.424,0,9.812,4.392,9.812,9.813   C77.645,384.132,73.257,388.524,67.833,388.524z M352.412,388.524c-5.426,0-9.814-4.392-9.814-9.811   c0-5.422,4.389-9.813,9.814-9.813c5.414,0,9.814,4.392,9.814,9.813C362.227,384.132,357.834,388.524,352.412,388.524z    M353.791,46.248c5.422,0,9.813,4.391,9.813,9.814c0,5.416-4.392,9.812-9.813,9.812c-5.41,0-9.811-4.396-9.811-9.812   S348.381,46.248,353.791,46.248z M69.219,46.248c5.418,0,9.814,4.391,9.814,9.814c0,5.416-4.396,9.812-9.814,9.812   c-5.416,0-9.812-4.396-9.812-9.812S63.803,46.248,69.219,46.248z M212.489,30.801c100.334,0,181.689,81.329,181.689,181.681   c0,100.338-81.354,181.685-181.689,181.685C112.155,394.167,30.8,312.82,30.8,212.482C30.8,112.138,112.155,30.801,212.489,30.801z   " fill="#FFFFFF"/>
	<path d="M42.853,215.103h6.516c1.663,0,3.011-1.487,3.011-3.336v-1.058v-14.555v-1.062c0-1.837-1.348-3.358-3.011-3.358h-6.516   c-1.657,0-3.025,1.515-3.025,3.358v1.062v14.555v1.058C39.827,213.608,41.195,215.103,42.853,215.103z" fill="#FFFFFF"/>
	<path d="M203.096,52.52h1.05h14.575h1.062c1.844,0,3.358-1.357,3.358-2.998V42.99c0-1.655-1.503-3.012-3.358-3.012h-1.062h-14.575   h-1.05c-1.842,0-3.354,1.356-3.354,3.012v6.532C199.741,51.163,201.246,52.52,203.096,52.52z" fill="#FFFFFF"/>
	<path d="M219.778,372.434h-1.062h-14.58h-1.054c-1.837,0-3.35,1.371-3.35,3.021v6.524c0,1.663,1.507,3.006,3.35,3.006h1.054h14.58   h1.062c1.848,0,3.354-1.343,3.354-3.006v-6.524C223.129,373.805,221.626,372.434,219.778,372.434z" fill="#FFFFFF"/>
	<path d="M89.669,107.247c1.163,1.168,3.198,1.068,4.5-0.234l11.053-11.046c0.008-0.016,0.022-0.032,0.03-0.054l0.701-0.691   c1.305-1.311,1.403-3.331,0.243-4.5l-4.608-4.606c-1.162-1.168-3.196-1.07-4.5,0.227L86.053,97.395l-0.764,0.751   c-1.296,1.302-1.402,3.324-0.227,4.492L89.669,107.247z" fill="#FFFFFF"/>
	<path d="M333.2,317.713c-1.174-1.175-3.189-1.066-4.5,0.228l-11.049,11.061l-0.749,0.746c-1.303,1.318-1.395,3.326-0.236,4.492   l4.62,4.608c1.166,1.174,3.198,1.082,4.501-0.225l11.032-11.053c0.016,0,0.016-0.016,0.032-0.031l0.717-0.722   c1.307-1.303,1.407-3.318,0.232-4.492L333.2,317.713z" fill="#FFFFFF"/>
	<path d="M105.252,329.034c-0.016-0.008-0.016-0.023-0.022-0.032l-11.052-11.061c-1.303-1.294-3.338-1.402-4.5-0.228l-4.606,4.612   c-1.17,1.182-1.07,3.189,0.226,4.476l11.055,11.073l0.743,0.749c1.303,1.307,3.338,1.398,4.509,0.225l4.601-4.608   c1.152-1.166,1.06-3.198-0.243-4.492L105.252,329.034z" fill="#FFFFFF"/>
	<path d="M317.64,95.95c0,0.008,0,0.016,0.004,0.016l11.049,11.046c1.311,1.303,3.334,1.403,4.508,0.234l4.585-4.625   c1.174-1.152,1.082-3.18-0.221-4.476l-0.729-0.722c0-0.006,0-0.021-0.016-0.03L325.778,86.34c-1.302-1.305-3.342-1.403-4.5-0.227   l-4.62,4.606c-1.15,1.17-1.059,3.19,0.244,4.5L317.64,95.95z" fill="#FFFFFF"/>
	<path d="M375.303,215.103h6.532c1.635,0,3.005-1.487,3.005-3.336v-1.058v-14.555v-1.062c0-1.837-1.346-3.358-3.005-3.358h-6.532   c-1.655,0-3.002,1.515-3.002,3.358v1.062v14.555v1.058C372.301,213.608,373.647,215.103,375.303,215.103z" fill="#FFFFFF"/>
	<path d="M212.489,362.24c82.717,0,149.738-67.053,149.738-149.758S295.206,62.734,212.489,62.734   c-82.697,0-149.748,67.042-149.748,149.748S129.792,362.24,212.489,362.24z M212.489,133.718c43.436,0,78.778,35.335,78.778,78.764   c0,43.437-35.342,78.782-78.778,78.782c-43.437,0-78.764-35.346-78.764-78.782C133.725,169.053,169.052,133.718,212.489,133.718z" fill="#FFFFFF"/>
</g>
<g>
</g>
<g>
</g>
<g>
</g>
<g>
</g>
<g>
</g>
<g>
</g>
<g>
</g>
<g>
</g>
<g>
</g>
<g>
</g>
<g>
</g>
<g>
</g>
<g>
</g>
<g>
</g>
<g>
</g>
</svg>
