<?xml version="1.0" encoding="iso-8859-1"?>
<!-- Generator: Adobe Illustrator 19.0.0, SVG Export Plug-In . SVG Version: 6.00 Build 0)  -->
<svg xmlns="http://www.w3.org/2000/svg" xmlns:xlink="http://www.w3.org/1999/xlink" version="1.1" id="Capa_1" x="0px" y="0px" viewBox="0 0 58 58" style="enable-background:new 0 0 58 58;" xml:space="preserve" width="512px" height="512px">
<g>
	<path d="M5,54h8c0.553,0,1-0.448,1-1V37c0-0.552-0.447-1-1-1H5c-0.553,0-1,0.448-1,1v16C4,53.552,4.447,54,5,54z M12,48H6v-2h6V48z    M12,44H6v-2h6V44z M6,52v-2h6v2H6z M12,38v2H6v-2H12z" fill="#FFFFFF"/>
	<polygon points="35.414,25 35,25.414 35,26.586 35.414,27 36.586,27 37,26.586 37,25.414 36.586,25  " fill="#FFFFFF"/>
	<polygon points="42,26.586 42.414,27 43.586,27 44,26.586 44,25.414 43.586,25 42.414,25 42,25.414  " fill="#FFFFFF"/>
	<path d="M10,13c1.654,0,3-1.346,3-3s-1.346-3-3-3C9.538,7,9.106,7.113,8.715,7.3l1.992,1.992c0.391,0.391,0.391,1.024,0,1.414   C10.512,10.902,10.256,11,10,11s-0.512-0.098-0.707-0.293L7.301,8.714C7.114,9.106,7,9.538,7,10C7,11.654,8.346,13,10,13z" fill="#FFFFFF"/>
	<polygon points="7,26.586 7.414,27 8.586,27 9,26.586 9,25.414 8.586,25 7.414,25 7,25.414  " fill="#FFFFFF"/>
	<polygon points="28.414,25 28,25.414 28,26.586 28.414,27 29.586,27 30,26.586 30,25.414 29.586,25  " fill="#FFFFFF"/>
	<polygon points="22.586,27 23,26.586 23,25.414 22.586,25 21.414,25 21,25.414 21,26.586 21.414,27  " fill="#FFFFFF"/>
	<polygon points="49.414,25 49,25.414 49,26.586 49.414,27 50.586,27 51,26.586 51,25.414 50.586,25  " fill="#FFFFFF"/>
	<polygon points="14,26.586 14.414,27 15.586,27 16,26.586 16,25.414 15.586,25 14.414,25 14,25.414  " fill="#FFFFFF"/>
	<path d="M0,0v19c0-0.55,0.45-1,1-1s1,0.45,1,1c0,0.55-0.45,1-1,1s-1-0.45-1-1v13v2v24h16h2h6h2h6h2h6h2h6h2h8V34v-2V19   c0,0.55-0.45,1-1,1s-1-0.45-1-1c0-0.55,0.45-1,1-1s1,0.45,1,1V0H0z M54,19c0,0.55-0.45,1-1,1s-1-0.45-1-1c0-0.55,0.45-1,1-1   S54,18.45,54,19z M32,27c0,0.265-0.105,0.52-0.293,0.707l-1,1C30.52,28.895,30.266,29,30,29h-2c-0.266,0-0.52-0.105-0.707-0.293   l-1-1C26.105,27.52,26,27.265,26,27v-2c0-0.265,0.105-0.52,0.293-0.707l1-1C27.48,23.105,27.734,23,28,23h2   c0.266,0,0.52,0.105,0.707,0.293l1,1C31.895,24.48,32,24.735,32,25V27z M51,29h-2c-0.266,0-0.52-0.105-0.707-0.293l-1-1   C47.105,27.52,47,27.265,47,27v-2c0-0.265,0.105-0.52,0.293-0.707l1-1C48.48,23.105,48.734,23,49,23h2   c0.266,0,0.52,0.105,0.707,0.293l1,1C52.895,24.48,53,24.735,53,25v2c0,0.265-0.105,0.52-0.293,0.707l-1,1   C51.52,28.895,51.266,29,51,29z M50,12h2c0.553,0,1,0.448,1,1s-0.447,1-1,1h-2c-0.553,0-1-0.448-1-1S49.447,12,50,12z M49,18   c0.55,0,1,0.45,1,1c0,0.55-0.45,1-1,1s-1-0.45-1-1C48,18.45,48.45,18,49,18z M45,9h2c0.553,0,1,0.448,1,1s-0.447,1-1,1h-2   c-0.553,0-1-0.448-1-1S44.447,9,45,9z M45,12h2c0.553,0,1,0.448,1,1s-0.447,1-1,1h-2c-0.553,0-1-0.448-1-1S44.447,12,45,12z M45,18   c0.55,0,1,0.45,1,1c0,0.55-0.45,1-1,1s-1-0.45-1-1C44,18.45,44.45,18,45,18z M44.707,23.293l1,1C45.895,24.48,46,24.735,46,25v2   c0,0.265-0.105,0.52-0.293,0.707l-1,1C44.52,28.895,44.266,29,44,29h-2c-0.266,0-0.52-0.105-0.707-0.293l-1-1   C40.105,27.52,40,27.265,40,27v-2c0-0.265,0.105-0.52,0.293-0.707l1-1C41.48,23.105,41.734,23,42,23h2   C44.266,23,44.52,23.105,44.707,23.293z M40,19c0-0.55,0.45-1,1-1s1,0.45,1,1c0,0.55-0.45,1-1,1S40,19.55,40,19z M40,6h2   c0.553,0,1,0.448,1,1s-0.447,1-1,1h-2c-0.553,0-1-0.448-1-1S39.447,6,40,6z M40,9h2c0.553,0,1,0.448,1,1s-0.447,1-1,1h-2   c-0.553,0-1-0.448-1-1S39.447,9,40,9z M40,12h2c0.553,0,1,0.448,1,1s-0.447,1-1,1h-2c-0.553,0-1-0.448-1-1S39.447,12,40,12z M39,25   v2c0,0.265-0.105,0.52-0.293,0.707l-1,1C37.52,28.895,37.266,29,37,29h-2c-0.266,0-0.52-0.105-0.707-0.293l-1-1   C33.105,27.52,33,27.265,33,27v-2c0-0.265,0.105-0.52,0.293-0.707l1-1C34.48,23.105,34.734,23,35,23h2   c0.266,0,0.52,0.105,0.707,0.293l1,1C38.895,24.48,39,24.735,39,25z M36,19c0-0.55,0.45-1,1-1s1,0.45,1,1c0,0.55-0.45,1-1,1   S36,19.55,36,19z M35,9h2c0.553,0,1,0.448,1,1s-0.447,1-1,1h-2c-0.553,0-1-0.448-1-1S34.447,9,35,9z M35,12h2c0.553,0,1,0.448,1,1   s-0.447,1-1,1h-2c-0.553,0-1-0.448-1-1S34.447,12,35,12z M34,19c0,0.55-0.45,1-1,1s-1-0.45-1-1c0-0.55,0.45-1,1-1S34,18.45,34,19z    M30,9h2c0.553,0,1,0.448,1,1s-0.447,1-1,1h-2c-0.553,0-1-0.448-1-1S29.447,9,30,9z M30,12h2c0.553,0,1,0.448,1,1s-0.447,1-1,1h-2   c-0.553,0-1-0.448-1-1S29.447,12,30,12z M29,18c0.55,0,1,0.45,1,1c0,0.55-0.45,1-1,1s-1-0.45-1-1C28,18.45,28.45,18,29,18z M25,6h2   c0.553,0,1,0.448,1,1s-0.447,1-1,1h-2c-0.553,0-1-0.448-1-1S24.447,6,25,6z M25,9h2c0.553,0,1,0.448,1,1s-0.447,1-1,1h-2   c-0.553,0-1-0.448-1-1S24.447,9,25,9z M25,12h2c0.553,0,1,0.448,1,1s-0.447,1-1,1h-2c-0.553,0-1-0.448-1-1S24.447,12,25,12z M25,18   c0.55,0,1,0.45,1,1c0,0.55-0.45,1-1,1s-1-0.45-1-1C24,18.45,24.45,18,25,18z M20,9h2c0.553,0,1,0.448,1,1s-0.447,1-1,1h-2   c-0.553,0-1-0.448-1-1S19.447,9,20,9z M20,12h2c0.553,0,1,0.448,1,1s-0.447,1-1,1h-2c-0.553,0-1-0.448-1-1S19.447,12,20,12z M22,19   c0,0.55-0.45,1-1,1s-1-0.45-1-1c0-0.55,0.45-1,1-1S22,18.45,22,19z M19,25c0-0.265,0.105-0.52,0.293-0.707l1-1   C20.48,23.105,20.734,23,21,23h2c0.266,0,0.52,0.105,0.707,0.293l1,1C24.895,24.48,25,24.735,25,25v2   c0,0.265-0.105,0.52-0.293,0.707l-1,1C23.52,28.895,23.266,29,23,29h-2c-0.266,0-0.52-0.105-0.707-0.293l-1-1   C19.105,27.52,19,27.265,19,27V25z M17,18c0.55,0,1,0.45,1,1c0,0.55-0.45,1-1,1s-1-0.45-1-1C16,18.45,16.45,18,17,18z    M16.707,23.293l1,1C17.895,24.48,18,24.735,18,25v2c0,0.265-0.105,0.52-0.293,0.707l-1,1C16.52,28.895,16.266,29,16,29h-2   c-0.266,0-0.52-0.105-0.707-0.293l-1-1C12.105,27.52,12,27.265,12,27v-2c0-0.265,0.105-0.52,0.293-0.707l1-1   C13.48,23.105,13.734,23,14,23h2C16.266,23,16.52,23.105,16.707,23.293z M12,19c0-0.55,0.45-1,1-1s1,0.45,1,1c0,0.55-0.45,1-1,1   S12,19.55,12,19z M6.453,6.482C6.458,6.477,6.46,6.47,6.465,6.464C6.47,6.459,6.478,6.458,6.483,6.452C7.387,5.556,8.629,5,10,5   c2.757,0,5,2.243,5,5s-2.243,5-5,5s-5-2.243-5-5C5,8.629,5.556,7.386,6.453,6.482z M9,23c0.266,0,0.52,0.105,0.707,0.293l1,1   C10.895,24.48,11,24.735,11,25v2c0,0.265-0.105,0.52-0.293,0.707l-1,1C9.52,28.895,9.266,29,9,29H7   c-0.266,0-0.52-0.105-0.707-0.293l-1-1C5.105,27.52,5,27.265,5,27v-2c0-0.265,0.105-0.52,0.293-0.707l1-1   C6.48,23.105,6.734,23,7,23H9z M8,19c0-0.55,0.45-1,1-1s1,0.45,1,1c0,0.55-0.45,1-1,1S8,19.55,8,19z M5,18c0.55,0,1,0.45,1,1   c0,0.55-0.45,1-1,1s-1-0.45-1-1C4,18.45,4.45,18,5,18z M16,56H2V34h14V56z M24,56h-6V34h4v16h2V56z M32,56h-6v-6h2V34h2v16h2V56z    M40,56h-6v-6h2V34h2v16h2V56z M48,56h-6v-6h2V34h2v16h2V56z M56,56h-6v-6h2V34h4V56z" fill="#FFFFFF"/>
</g>
<g>
</g>
<g>
</g>
<g>
</g>
<g>
</g>
<g>
</g>
<g>
</g>
<g>
</g>
<g>
</g>
<g>
</g>
<g>
</g>
<g>
</g>
<g>
</g>
<g>
</g>
<g>
</g>
<g>
</g>
</svg>
